<?xml version="1.0" encoding="UTF-8" standalone="no"?>
<!-- Created with Inkscape (http://www.inkscape.org/) -->

<svg
   xmlns:dc="http://purl.org/dc/elements/1.1/"
   xmlns:cc="http://creativecommons.org/ns#"
   xmlns:rdf="http://www.w3.org/1999/02/22-rdf-syntax-ns#"
   xmlns:svg="http://www.w3.org/2000/svg"
   xmlns="http://www.w3.org/2000/svg"
   xmlns:xlink="http://www.w3.org/1999/xlink"
   xmlns:sodipodi="http://sodipodi.sourceforge.net/DTD/sodipodi-0.dtd"
   xmlns:inkscape="http://www.inkscape.org/namespaces/inkscape"
   width="210mm"
   height="297mm"
   viewBox="0 0 210 297"
   version="1.1"
   id="svg1082"
   inkscape:export-filename="/home/gautham/Pictures/a.png"
   inkscape:export-xdpi="96"
   inkscape:export-ydpi="96"
   sodipodi:docname="ecop.svg"
   inkscape:version="0.92.2 5c3e80d, 2017-08-06">
  <defs
     id="defs1076">
    <linearGradient
       inkscape:collect="always"
       id="linearGradient1708">
      <stop
         style="stop-color:#000080;stop-opacity:1"
         offset="0"
         id="stop1704" />
      <stop
         style="stop-color:#00ffff;stop-opacity:1"
         offset="1"
         id="stop1706" />
    </linearGradient>
    <linearGradient
       inkscape:collect="always"
       xlink:href="#linearGradient1708"
       id="linearGradient1710"
       x1="-82.207382"
       y1="-64.01619"
       x2="602.67603"
       y2="624.90784"
       gradientUnits="userSpaceOnUse" />
    <filter
       inkscape:collect="always"
       style="color-interpolation-filters:sRGB"
       id="filter1844"
       x="-0.0406875"
       width="1.081375"
       y="-0.0434"
       height="1.0868">
      <feGaussianBlur
         inkscape:collect="always"
         stdDeviation="8.68"
         id="feGaussianBlur1846" />
    </filter>
    <filter
       style="color-interpolation-filters:sRGB;"
       inkscape:label="Brilliance"
       id="filter1870">
      <feColorMatrix
         values="2 -0.5 -0.5 0 0 -0.5 2 -0.5 0 0 -0.5 -0.5 2 0 0 0 0 0 1 0 "
         id="feColorMatrix1868" />
    </filter>
    <linearGradient
       inkscape:collect="always"
       xlink:href="#linearGradient1708"
       id="linearGradient2326"
       gradientUnits="userSpaceOnUse"
       x1="-82.207382"
       y1="-64.01619"
       x2="602.67603"
       y2="624.90784" />
    <linearGradient
       inkscape:collect="always"
       xlink:href="#linearGradient1708"
       id="linearGradient2328"
       gradientUnits="userSpaceOnUse"
       x1="-82.207382"
       y1="-64.01619"
       x2="602.67603"
       y2="624.90784" />
  </defs>
  <sodipodi:namedview
     id="base"
     pagecolor="#ffffff"
     bordercolor="#666666"
     borderopacity="1.0"
     inkscape:pageopacity="0.0"
     inkscape:pageshadow="2"
     inkscape:zoom="0.49497475"
     inkscape:cx="177.12951"
     inkscape:cy="543.22913"
     inkscape:document-units="mm"
     inkscape:current-layer="layer1"
     showgrid="false"
     inkscape:snap-bbox="true"
     inkscape:window-width="1366"
     inkscape:window-height="691"
     inkscape:window-x="0"
     inkscape:window-y="0"
     inkscape:window-maximized="1" />
  <metadata
     id="metadata1079">
    <rdf:RDF>
      <cc:Work
         rdf:about="">
        <dc:format>image/svg+xml</dc:format>
        <dc:type
           rdf:resource="http://purl.org/dc/dcmitype/StillImage" />
        <dc:title></dc:title>
      </cc:Work>
    </rdf:RDF>
  </metadata>
  <g
     inkscape:label="Layer 1"
     inkscape:groupmode="layer"
     id="layer1">
    <g
       id="g3762">
      <g
         id="g1832"
         transform="matrix(0.26458333,0,0,0.26458333,30.389286,88.810716)"
         style="opacity:0.75;fill:#80b3ff;fill-opacity:1;filter:url(#filter1844)" />
      <g
         id="g3753">
        <path
           transform="matrix(0.26458333,0,0,0.26458333,30.389285,88.810716)"
           style="opacity:0.75;fill:#80b3ff;fill-opacity:1;filter:url(#filter1844)"
           inkscape:connector-curvature="0"
           d="M 304.008,464 H 304 v -16 c 0,-26.469 -21.531,-48 -48,-48 H 64 c -26.461,0 -48,21.531 -48.008,48 v 16.002 C 7.161,464.006 0,471.167 0,480 c 0,8.836 7.164,16 16,16 h 288.008 c 8.836,0 16,-7.164 16,-16 0,-8.836 -7.164,-16 -16,-16 z M 64,432 h 192 c 8.82,0 16,7.18 16,16 v 16 H 47.992 V 448.008 C 48,439.18 55.18,432 64,432 Z"
           id="path1828" />
        <path
           transform="matrix(0.26458333,0,0,0.26458333,30.389285,88.810716)"
           style="opacity:0.75;fill:#80b3ff;fill-opacity:1;filter:url(#filter1844)"
           inkscape:connector-curvature="0"
           d="M 464,128 H 224 V 96 h 16 c 8.836,0 16,-7.164 16,-16 V 32 c 0,-8.836 -7.164,-16 -16,-16 H 80 c -8.836,0 -16,7.164 -16,16 v 48 c 0,8.836 7.164,16 16,16 H 96 V 256.001 L 80,256 c -4.242,0 -8.313,1.688 -11.313,4.688 -3,3 -4.687,7.07 -4.687,11.312 v 47.992 C 64,328.828 71.164,336 80,336 h 160 c 4.242,0 8.313,-1.688 11.313,-4.688 3,-3 4.687,-7.07 4.687,-11.312 v -47.992 c 0,-8.836 -7.164,-16 -16,-16 l -16,-10e-4 V 224 h 240 c 26.469,0 48,-21.531 48,-48 0,-26.469 -21.531,-48 -48,-48 z M 224,304 H 96 v -16 l 128,0.008 z M 96,48 H 224 V 64 H 208 112 96 Z m 96,48 v 48 64 48 H 128 V 96 Z m 272,96 H 224 v -32 h 240 c 8.82,0 16,7.18 16,16 0,8.82 -7.18,16 -16,16 z"
           id="path1830" />
        <g
           id="g1683"
           transform="matrix(0.26458333,0,0,0.26458333,38.855953,88.810716)"
           style="fill:url(#linearGradient1710);fill-opacity:1;filter:url(#filter1870)"
           inkscape:export-xdpi="96"
           inkscape:export-ydpi="96">
          <path
             id="path1679"
             d="M 304.008,464 H 304 v -16 c 0,-26.469 -21.531,-48 -48,-48 H 64 c -26.461,0 -48,21.531 -48.008,48 v 16.002 C 7.161,464.006 0,471.167 0,480 c 0,8.836 7.164,16 16,16 h 288.008 c 8.836,0 16,-7.164 16,-16 0,-8.836 -7.164,-16 -16,-16 z M 64,432 h 192 c 8.82,0 16,7.18 16,16 v 16 H 47.992 V 448.008 C 48,439.18 55.18,432 64,432 Z"
             inkscape:connector-curvature="0"
             style="fill:url(#linearGradient2326);fill-opacity:1" />
          <path
             id="path1681"
             d="M 464,128 H 224 V 96 h 16 c 8.836,0 16,-7.164 16,-16 V 32 c 0,-8.836 -7.164,-16 -16,-16 H 80 c -8.836,0 -16,7.164 -16,16 v 48 c 0,8.836 7.164,16 16,16 H 96 V 256.001 L 80,256 c -4.242,0 -8.313,1.688 -11.313,4.688 -3,3 -4.687,7.07 -4.687,11.312 v 47.992 C 64,328.828 71.164,336 80,336 h 160 c 4.242,0 8.313,-1.688 11.313,-4.688 3,-3 4.687,-7.07 4.687,-11.312 v -47.992 c 0,-8.836 -7.164,-16 -16,-16 l -16,-10e-4 V 224 h 240 c 26.469,0 48,-21.531 48,-48 0,-26.469 -21.531,-48 -48,-48 z M 224,304 H 96 v -16 l 128,0.008 z M 96,48 H 224 V 64 H 208 112 96 Z m 96,48 v 48 64 48 H 128 V 96 Z m 272,96 H 224 v -32 h 240 c 8.82,0 16,7.18 16,16 0,8.82 -7.18,16 -16,16 z"
             inkscape:connector-curvature="0"
             style="fill:url(#linearGradient2328);fill-opacity:1" />
        </g>
      </g>
    </g>
  </g>
</svg>
